<?xml version="1.0" standalone="no"?>
<!DOCTYPE svg PUBLIC "-//W3C//DTD SVG 20010904//EN"
 "http://www.w3.org/TR/2001/REC-SVG-20010904/DTD/svg10.dtd">
<svg version="1.0" xmlns="http://www.w3.org/2000/svg"
 width="80.000000pt" height="80.000000pt" viewBox="0 0 80.000000 80.000000"
 preserveAspectRatio="xMidYMid meet">
<metadata>
Created by potrace 1.11, written by Peter Selinger 2001-2013
</metadata>
<g transform="translate(0.000000,80.000000) scale(0.100000,-0.100000)"
fill="#000000" stroke="none">
<path d="M90 580 l-34 -31 17 -87 c44 -214 47 -223 98 -255 l46 -28 77 53 c41
29 76 58 76 63 0 10 -63 55 -78 55 -4 0 -27 -14 -50 -31 -24 -17 -45 -30 -47
-28 -6 7 -35 172 -31 176 2 2 47 -26 100 -64 321 -229 316 -226 340 -213 60
31 76 54 91 125 8 39 24 107 34 152 l19 82 -37 30 c-20 17 -40 29 -46 27 -5
-2 -63 -40 -128 -84 l-118 -80 44 -31 44 -30 61 44 c58 42 91 57 77 35 -3 -5
-8 -22 -10 -37 -7 -51 -23 -124 -27 -128 -2 -3 -42 21 -89 53 -46 32 -148 101
-226 155 -78 53 -147 99 -155 102 -8 3 -29 -8 -48 -25z"/>
</g>
</svg>
